<svg width="24" height="24" viewBox="0 0 24 24" fill="none" xmlns="http://www.w3.org/2000/svg">
<path d="M5.0876 7.05609C4.57847 7.05609 4.08079 7.20709 3.65749 7.48998C3.23419 7.77287 2.9043 8.17495 2.70954 8.64535C2.51479 9.11575 2.46392 9.63335 2.56337 10.1327C2.66282 10.632 2.90812 11.0906 3.26825 11.4505C3.62838 11.8104 4.08715 12.0554 4.58654 12.1545C5.08592 12.2536 5.60348 12.2024 6.07376 12.0073C6.54403 11.8122 6.94588 11.4821 7.22849 11.0586C7.5111 10.6351 7.66176 10.1373 7.66141 9.62817C7.66141 9.29026 7.59483 8.95565 7.46546 8.64348C7.33609 8.33131 7.14648 8.04769 6.90746 7.80883C6.66843 7.56996 6.38468 7.38054 6.07243 7.25138C5.76017 7.12223 5.42552 7.05586 5.0876 7.05609ZM4.39525 7.69132C4.39525 7.64913 4.40359 7.60735 4.41979 7.56838C4.43599 7.52942 4.45973 7.49404 4.48965 7.46429C4.51957 7.43453 4.55507 7.41098 4.59412 7.39499C4.63317 7.379 4.675 7.37088 4.71719 7.37111H5.43551C5.4777 7.37088 5.51953 7.379 5.55858 7.39499C5.59763 7.41098 5.63313 7.43453 5.66305 7.46429C5.69297 7.49404 5.71671 7.52942 5.73291 7.56838C5.74911 7.60735 5.75745 7.64913 5.75745 7.69132V8.63984C5.75477 8.73878 5.71879 8.83392 5.65533 8.90986L5.15857 9.44989C5.14801 9.4626 5.13478 9.47283 5.11982 9.47985C5.10487 9.48687 5.08855 9.49051 5.07202 9.49051C5.0555 9.49051 5.03918 9.48687 5.02422 9.47985C5.00926 9.47283 4.99604 9.4626 4.98548 9.44989L4.53199 8.95313C4.48794 8.91337 4.45236 8.86513 4.42738 8.8113C4.40239 8.75747 4.38852 8.69916 4.3866 8.63984L4.39525 7.69132ZM4.01619 10.3084H3.06767C2.98228 10.3084 2.9004 10.2745 2.84002 10.2141C2.77964 10.1537 2.74572 10.0719 2.74572 9.98647V9.26815C2.74572 9.18277 2.77964 9.10088 2.84002 9.0405C2.9004 8.98013 2.98228 8.94621 3.06767 8.94621H4.01619C4.11507 8.94915 4.21012 8.9851 4.2862 9.04833L4.82624 9.54336C4.83895 9.55392 4.84918 9.56715 4.8562 9.5821C4.86322 9.59706 4.86686 9.61338 4.86686 9.62991C4.86686 9.64643 4.86322 9.66275 4.8562 9.67771C4.84918 9.69266 4.83895 9.70589 4.82624 9.71645L4.32775 10.163C4.28818 10.2069 4.24022 10.2423 4.18671 10.2673C4.13319 10.2923 4.07521 10.3063 4.01619 10.3084ZM5.74706 11.6637C5.74706 11.7491 5.71315 11.831 5.65277 11.8913C5.59239 11.9517 5.51051 11.9856 5.42512 11.9856H4.71373C4.62835 11.9856 4.54646 11.9517 4.48608 11.8913C4.42571 11.831 4.39179 11.7491 4.39179 11.6637V10.7169C4.39372 10.6576 4.40759 10.5993 4.43257 10.5454C4.45755 10.4916 4.49313 10.4434 4.53718 10.4036L4.99067 9.90685C5.00123 9.89414 5.01446 9.88391 5.02941 9.87689C5.04437 9.86987 5.06069 9.86623 5.07722 9.86623C5.09374 9.86623 5.11006 9.86987 5.12502 9.87689C5.13997 9.88391 5.1532 9.89414 5.16376 9.90685L5.65879 10.4469C5.72202 10.523 5.75797 10.618 5.76091 10.7169L5.74706 11.6637ZM7.03311 10.3084H6.09151C6.0322 10.3065 5.97388 10.2926 5.92005 10.2676C5.86622 10.2426 5.81798 10.2071 5.77822 10.163L5.28319 9.70953C5.2702 9.69915 5.25972 9.68598 5.25251 9.671C5.2453 9.65602 5.24156 9.63961 5.24156 9.62298C5.24156 9.60636 5.2453 9.58995 5.25251 9.57496C5.25972 9.55998 5.2702 9.54682 5.28319 9.53644L5.82149 9.04141C5.89757 8.97818 5.99263 8.94223 6.09151 8.93929H7.04003C7.12541 8.93929 7.2073 8.9732 7.26768 9.03358C7.32805 9.09396 7.36197 9.17584 7.36197 9.26123V9.97954C7.36289 10.0224 7.35525 10.065 7.33948 10.1049C7.32372 10.1447 7.30015 10.181 7.27016 10.2117C7.24017 10.2423 7.20437 10.2666 7.16485 10.2833C7.12533 10.2999 7.0829 10.3084 7.04003 10.3084H7.03311Z" fill="#878787"/>
<path d="M7.50389 8.20361V7.25855C7.51108 7.14155 7.56262 7.03169 7.64801 6.95138C7.73341 6.87107 7.84622 6.82635 7.96344 6.82635C8.08067 6.82635 8.19348 6.87107 8.27887 6.95138C8.36426 7.03169 8.41581 7.14155 8.42299 7.25855V8.20361C8.42684 8.26633 8.41781 8.32918 8.39646 8.38828C8.37511 8.44738 8.34188 8.50148 8.29883 8.54725C8.25578 8.59303 8.20382 8.62951 8.14614 8.65444C8.08846 8.67938 8.02628 8.69224 7.96344 8.69224C7.9006 8.69224 7.83843 8.67938 7.78075 8.65444C7.72307 8.62951 7.6711 8.59303 7.62805 8.54725C7.585 8.50148 7.55178 8.44738 7.53042 8.38828C7.50907 8.32918 7.50004 8.26633 7.50389 8.20361Z" fill="#878787"/>
<path d="M9.55672 13.0847C9.55672 13.3494 9.4782 13.6082 9.33111 13.8282C9.18402 14.0483 8.97495 14.2198 8.73037 14.321C8.48579 14.4222 8.21668 14.4486 7.95709 14.3969C7.6975 14.3451 7.4591 14.2175 7.27205 14.0302C7.085 13.8429 6.95771 13.6044 6.90628 13.3447C6.85485 13.085 6.88159 12.816 6.98313 12.5715C7.08466 12.3271 7.25642 12.1182 7.47668 11.9714C7.69693 11.8246 7.95578 11.7464 8.22048 11.7468C8.57503 11.7472 8.91491 11.8884 9.16545 12.1393C9.41599 12.3901 9.55672 12.7302 9.55672 13.0847Z" fill="#878787"/>
<path d="M15.5784 8.20367V7.25861C15.5784 7.13696 15.6268 7.02029 15.7128 6.93427C15.7988 6.84825 15.9155 6.79993 16.0371 6.79993C16.1588 6.79993 16.2754 6.84825 16.3615 6.93427C16.4475 7.02029 16.4958 7.13696 16.4958 7.25861V8.20367C16.4958 8.32532 16.4475 8.44199 16.3615 8.52801C16.2754 8.61402 16.1588 8.66235 16.0371 8.66235C15.9155 8.66235 15.7988 8.61402 15.7128 8.52801C15.6268 8.44199 15.5784 8.32532 15.5784 8.20367Z" fill="#878787"/>
<path d="M17.1154 13.0847C17.1154 13.3494 17.0369 13.6082 16.8898 13.8282C16.7427 14.0483 16.5337 14.2198 16.2891 14.321C16.0445 14.4222 15.7754 14.4486 15.5158 14.3969C15.2562 14.3451 15.0178 14.2175 14.8308 14.0302C14.6437 13.8429 14.5164 13.6044 14.465 13.3447C14.4136 13.085 14.4403 12.816 14.5419 12.5715C14.6434 12.3271 14.8151 12.1182 15.0354 11.9714C15.2557 11.8246 15.5145 11.7464 15.7792 11.7468C16.1338 11.7472 16.4736 11.8884 16.7242 12.1393C16.9747 12.3901 17.1154 12.7302 17.1154 13.0847Z" fill="#878787"/>
<path d="M18.9104 7.05609C18.4012 7.05609 17.9035 7.20709 17.4802 7.48998C17.0569 7.77287 16.7271 8.17495 16.5323 8.64535C16.3375 9.11575 16.2867 9.63335 16.3861 10.1327C16.4856 10.632 16.7309 11.0906 17.091 11.4505C17.4511 11.8104 17.9099 12.0554 18.4093 12.1545C18.9087 12.2536 19.4262 12.2024 19.8965 12.0073C20.3668 11.8122 20.7686 11.4821 21.0512 11.0586C21.3338 10.6351 21.4845 10.1373 21.4842 9.62817C21.4842 9.29026 21.4176 8.95565 21.2882 8.64348C21.1588 8.33131 20.9692 8.04769 20.7302 7.80883C20.4912 7.56996 20.2074 7.38054 19.8952 7.25138C19.5829 7.12223 19.2483 7.05586 18.9104 7.05609ZM17.3093 10.3326C17.161 10.3326 17.016 10.2886 16.8927 10.2062C16.7694 10.1238 16.6734 10.0066 16.6167 9.86958C16.56 9.73253 16.5453 9.58175 16.5744 9.43632C16.6034 9.29089 16.675 9.15735 16.78 9.0526C16.8849 8.94786 17.0186 8.87662 17.1641 8.84789C17.3096 8.81917 17.4604 8.83426 17.5973 8.89125C17.7342 8.94824 17.8512 9.04457 17.9333 9.16805C18.0154 9.29153 18.0591 9.4366 18.0588 9.5849C18.059 9.68331 18.0398 9.78079 18.0021 9.87172C17.9645 9.96266 17.9093 10.0453 17.8397 10.1148C17.77 10.1843 17.6873 10.2393 17.5962 10.2767C17.5052 10.3141 17.4077 10.3331 17.3093 10.3326ZM18.9346 11.9493C18.7864 11.9493 18.6415 11.9053 18.5182 11.823C18.395 11.7406 18.2989 11.6236 18.2422 11.4866C18.1854 11.3497 18.1706 11.199 18.1995 11.0536C18.2284 10.9082 18.2998 10.7747 18.4046 10.6699C18.5094 10.565 18.643 10.4937 18.7884 10.4647C18.9338 10.4358 19.0844 10.4507 19.2214 10.5074C19.3583 10.5641 19.4754 10.6602 19.5577 10.7834C19.6401 10.9067 19.6841 11.0516 19.6841 11.1998C19.6843 11.2984 19.665 11.3961 19.6273 11.4873C19.5896 11.5784 19.5343 11.6612 19.4644 11.7309C19.3946 11.8006 19.3117 11.8557 19.2205 11.8932C19.1292 11.9307 19.0315 11.9497 18.9329 11.9493H18.9346ZM18.9346 8.71946C18.7863 8.71946 18.6413 8.67546 18.518 8.59304C18.3947 8.51061 18.2987 8.39345 18.242 8.2564C18.1853 8.11935 18.1706 7.96857 18.1996 7.82314C18.2287 7.67771 18.3003 7.54417 18.4052 7.43943C18.5102 7.33468 18.6439 7.26344 18.7894 7.23472C18.9349 7.20599 19.0857 7.22108 19.2226 7.27807C19.3595 7.33506 19.4764 7.43139 19.5586 7.55487C19.6407 7.67835 19.6844 7.82342 19.6841 7.97173C19.6843 8.07028 19.665 8.1679 19.6273 8.25895C19.5896 8.35 19.5342 8.43267 19.4643 8.5022C19.3945 8.57172 19.3116 8.62672 19.2203 8.66401C19.1291 8.7013 19.0314 8.72015 18.9329 8.71946H18.9346ZM20.6101 10.3326C20.4618 10.3326 20.3168 10.2886 20.1935 10.2062C20.0702 10.1238 19.9742 10.0066 19.9175 9.86958C19.8608 9.73253 19.8461 9.58175 19.8751 9.43632C19.9042 9.29089 19.9757 9.15735 20.0807 9.0526C20.1857 8.94786 20.3194 8.87662 20.4649 8.84789C20.6104 8.81917 20.7612 8.83426 20.8981 8.89125C21.035 8.94824 21.1519 9.04457 21.2341 9.16805C21.3162 9.29153 21.3599 9.4366 21.3595 9.5849C21.3598 9.68345 21.3405 9.78107 21.3028 9.87212C21.2651 9.96318 21.2097 10.0459 21.1398 10.1154C21.07 10.1849 20.9871 10.2399 20.8958 10.2772C20.8046 10.3145 20.7069 10.3333 20.6083 10.3326H20.6101Z" fill="#878787"/>
<path d="M23.9074 15.2466C23.7776 14.0506 23.5612 12.8978 23.3414 11.8298C23.0818 10.575 22.8222 9.49142 22.5192 8.51867C22.3712 7.97287 22.1431 7.45201 21.8425 6.973C21.7611 6.85357 21.6867 6.73933 21.6105 6.62682L21.5534 6.53855C21.4305 6.34988 21.3024 6.15602 21.1709 5.96736C21.1024 5.86849 21.0154 5.78384 20.9147 5.71811C20.8607 5.62396 20.7897 5.54062 20.7053 5.47233C20.6113 5.40131 20.5083 5.3431 20.3989 5.29924C19.4867 4.91452 18.4604 4.90024 17.5378 5.25943C17.3446 5.33122 17.1873 5.47606 17.0999 5.66272C17.0266 5.67962 16.9518 5.68833 16.8766 5.68869H15.3188C15.2214 5.54624 15.0907 5.4297 14.9381 5.34917C14.7855 5.26864 14.6155 5.22655 14.443 5.22654H9.55844C9.38588 5.22655 9.21593 5.26864 9.06331 5.34917C8.91069 5.4297 8.78002 5.54624 8.68262 5.68869H7.12483C7.05191 5.68918 6.97921 5.68046 6.90847 5.66272C6.8217 5.4766 6.66494 5.33228 6.47229 5.26116C5.54887 4.90048 4.5212 4.91414 3.60769 5.29924C3.49936 5.34297 3.39746 5.40119 3.30479 5.47233C3.22446 5.54079 3.15603 5.62209 3.10228 5.71292C3.00035 5.77976 2.91221 5.86555 2.84264 5.96563C2.69206 6.18372 2.54493 6.40873 2.40127 6.62682L2.37011 6.67529L2.17626 6.97127C1.87328 7.4503 1.64343 7.97184 1.49429 8.51867C1.19312 9.52085 0.926564 10.5957 0.675587 11.8281C0.441918 12.8995 0.222097 14.0557 0.0905503 15.25C0.0255506 15.8362 -0.00450441 16.4258 0.000544736 17.0155C0.000544736 17.8619 0.203057 18.5733 1.12042 19.3384C1.67076 19.7623 2.34701 19.9902 3.04169 19.9857C3.99887 19.9857 4.97162 19.5755 5.35242 19.013C5.73321 18.4504 6.05861 17.5988 6.33728 16.7923L6.35805 16.7282C6.51729 16.2609 6.68173 15.778 6.8427 15.2968C7.25371 15.509 7.70946 15.62 8.17201 15.6205C8.78997 15.6175 9.39132 15.4201 9.89077 15.0562H14.1107C14.5456 15.377 15.0617 15.5694 15.6005 15.6116C16.1393 15.6538 16.6791 15.5442 17.1587 15.2951C17.2799 15.662 17.4062 16.0341 17.5291 16.3959L17.5724 16.5205L17.6641 16.7905C17.9394 17.5971 18.2492 18.4245 18.649 19.013C19.0298 19.5755 20.0008 19.9857 20.9597 19.9857C21.6474 19.9918 22.3174 19.7682 22.8637 19.3505C23.7949 18.582 23.9905 17.8619 23.9991 17.0155C24.0056 16.4246 23.975 15.8337 23.9074 15.2466ZM9.52037 6.28757C9.51598 6.2263 9.53554 6.16572 9.57493 6.11858C9.61432 6.07144 9.67046 6.04143 9.73153 6.03486H14.2785C14.3405 6.03974 14.3982 6.06878 14.4389 6.11572C14.4797 6.16267 14.5005 6.22376 14.4966 6.28584V8.66233C14.5005 8.72441 14.4797 8.7855 14.4389 8.83245C14.3982 8.87939 14.3405 8.90843 14.2785 8.91331H9.73153C9.67078 8.90674 9.6149 8.87698 9.57556 8.83022C9.53622 8.78346 9.51644 8.72332 9.52037 8.66233V6.28757ZM22.3704 18.7101C21.9668 19.0158 21.4729 19.1785 20.9667 19.1722C20.1722 19.1722 19.5058 18.8139 19.331 18.556C18.9848 18.0368 18.6715 17.2007 18.443 16.5292L18.3686 16.3093C18.1955 15.7901 18.0224 15.2881 17.8493 14.7758C17.8054 14.6718 17.7388 14.579 17.6543 14.5041C17.5699 14.4292 17.4697 14.3742 17.3612 14.3431C17.3334 14.3309 17.3033 14.325 17.273 14.3258C17.2104 14.3289 17.1501 14.3506 17.0999 14.3881C16.7256 14.6717 16.2669 14.8215 15.7974 14.8133C15.3279 14.8051 14.8747 14.6395 14.5105 14.3431C14.4309 14.2808 14.3329 14.2467 14.2318 14.2461H9.76961C9.66728 14.2471 9.56813 14.2818 9.48748 14.3448C9.12401 14.6388 8.67257 14.8026 8.20514 14.8102C7.73771 14.8177 7.28122 14.6685 6.90847 14.3863C6.85812 14.3488 6.79803 14.3266 6.73539 14.3223C6.70433 14.3218 6.67356 14.3283 6.64538 14.3413C6.53771 14.3738 6.4388 14.4302 6.35605 14.5063C6.27331 14.5825 6.2089 14.6764 6.16766 14.781C5.97207 15.3677 5.77129 15.9597 5.5757 16.5309C5.34549 17.2042 5.03913 18.042 4.68776 18.5595C4.51467 18.8174 3.84655 19.1757 3.05035 19.1757C2.54249 19.1817 2.04719 19.0178 1.64315 18.7101C0.955989 18.151 0.822711 17.6767 0.815788 17.0069C0.81093 16.4495 0.839251 15.8923 0.9006 15.3383C1.02695 14.1717 1.24678 13.0414 1.45967 11.9925C1.70373 10.7913 1.96509 9.73201 2.25934 8.75407C2.38645 8.28332 2.5818 7.83371 2.83918 7.41956C2.90669 7.31744 2.97419 7.21705 3.03996 7.11493C3.18882 6.88818 3.3446 6.65278 3.50038 6.42258C3.5346 6.39055 3.57376 6.36425 3.61635 6.34469C3.66163 6.32177 3.7009 6.28852 3.73096 6.24763C3.76103 6.20674 3.78106 6.15935 3.78943 6.10929C3.82176 6.08635 3.8566 6.06718 3.89329 6.05217C4.60905 5.74462 5.4168 5.72971 6.14343 6.01063C6.14444 6.0944 6.17581 6.17496 6.2317 6.23737C6.28689 6.30131 6.36414 6.3421 6.44806 6.35161C6.65867 6.45219 6.88974 6.50255 7.1231 6.49874H8.72416V8.84234C8.72462 9.06622 8.81376 9.2808 8.97206 9.43911C9.13037 9.59741 9.34495 9.68655 9.56883 9.68701H14.4516C14.6754 9.68655 14.8898 9.59736 15.0478 9.439C15.2058 9.28065 15.2946 9.06606 15.2946 8.84234V6.49874H16.8818C17.1171 6.5036 17.3502 6.45258 17.562 6.34988C17.6438 6.34067 17.7191 6.30115 17.7732 6.2391C17.8255 6.17406 17.8525 6.09231 17.8493 6.0089C18.5733 5.72978 19.3777 5.74469 20.0908 6.05044C20.1285 6.06446 20.1641 6.08369 20.1964 6.10756C20.2057 6.16008 20.228 6.20944 20.2613 6.25115C20.2945 6.29287 20.3377 6.32561 20.3868 6.34642C20.4283 6.36604 20.4663 6.39235 20.4993 6.42431C20.6447 6.63548 20.7866 6.85183 20.9251 7.063L21.1622 7.41956C21.4184 7.8329 21.6131 8.28126 21.7404 8.75061C22.0294 9.70605 22.2925 10.7653 22.5435 11.9908C22.7581 13.0449 22.9745 14.1786 23.0991 15.3349C23.1627 15.8887 23.1916 16.446 23.1856 17.0034C23.177 17.6767 23.0437 18.151 22.3617 18.7101H22.3704Z" fill="#878787"/>
<path d="M7.5 16.8295V18.5549C7.50066 18.7238 7.56818 18.8856 7.68776 19.0048C7.80734 19.124 7.96925 19.1909 8.13803 19.1909H9.86197C10.0308 19.1909 10.1927 19.124 10.3122 19.0048C10.4318 18.8856 10.4993 18.7238 10.5 18.5549V16.8295C10.5 16.6601 10.4328 16.4977 10.3131 16.3779C10.1935 16.2582 10.0312 16.1909 9.86197 16.1909H8.13803C7.96882 16.1909 7.80653 16.2582 7.68688 16.3779C7.56722 16.4977 7.5 16.6601 7.5 16.8295Z" fill="#5C53E9"/>
<path d="M7.31276 16.9449V16.8294C7.31375 16.6097 7.40145 16.3993 7.55678 16.244C7.7121 16.0887 7.92247 16.001 8.14213 16H15.864C16.0829 16.0034 16.2919 16.0919 16.4467 16.2467C16.6015 16.4015 16.6899 16.6105 16.6934 16.8294V18.4843C16.6934 18.5932 16.6719 18.7009 16.6302 18.8014C16.5885 18.9019 16.5274 18.9932 16.4503 19.0701C16.3733 19.147 16.2818 19.2079 16.1812 19.2494C16.0806 19.2908 15.9728 19.3121 15.864 19.3118H8.13834C8.02952 19.3121 7.92171 19.2908 7.8211 19.2494C7.72049 19.2079 7.62904 19.147 7.552 19.0701C7.47496 18.9932 7.41384 18.9019 7.37214 18.8014C7.33044 18.7009 7.30897 18.5932 7.30897 18.4843V18.3688M13.8246 18.3101C13.8251 18.4379 13.8762 18.5602 13.9667 18.6503C14.0572 18.7405 14.1798 18.7911 14.3075 18.7911H15.6121C15.7399 18.7911 15.8624 18.7405 15.9529 18.6503C16.0434 18.5602 16.0945 18.4379 16.095 18.3101V17.0036C16.0945 16.8758 16.0434 16.7535 15.9529 16.6634C15.8624 16.5732 15.7399 16.5226 15.6121 16.5226H14.3075C14.1798 16.5226 14.0572 16.5732 13.9667 16.6634C13.8762 16.7535 13.8251 16.8758 13.8246 17.0036V18.3101ZM10.9048 18.3101C10.9053 18.4379 10.9564 18.5602 11.0469 18.6503C11.1374 18.7405 11.2599 18.7911 11.3877 18.7911H12.6923C12.8199 18.7911 12.9422 18.7404 13.0324 18.6502C13.1226 18.56 13.1733 18.4377 13.1733 18.3101V17.0036C13.1733 16.876 13.1226 16.7537 13.0324 16.6635C12.9422 16.5733 12.8199 16.5226 12.6923 16.5226H11.3877C11.2599 16.5226 11.1374 16.5732 11.0469 16.6634C10.9564 16.7535 10.9053 16.8758 10.9048 17.0036V18.3101ZM7.87514 18.3101C7.87514 18.4377 7.92581 18.56 8.01601 18.6502C8.10621 18.7404 8.22854 18.7911 8.3561 18.7911H9.66264C9.78921 18.7896 9.91009 18.7383 9.99906 18.6482C10.088 18.5582 10.1379 18.4367 10.1379 18.3101V17.0036C10.1379 16.9404 10.1255 16.8779 10.1013 16.8195C10.0771 16.7612 10.0417 16.7081 9.99705 16.6635C9.95239 16.6188 9.89937 16.5834 9.84102 16.5592C9.78266 16.5351 9.72012 16.5226 9.65696 16.5226H8.35042C8.22286 16.5226 8.10053 16.5733 8.01033 16.6635C7.92013 16.7537 7.86946 16.876 7.86946 17.0036L7.87514 18.3101Z" fill="#878787"/>
</svg>
