<svg width="23" height="23" viewBox="0 0 23 23" fill="none" xmlns="http://www.w3.org/2000/svg">
<path d="M20.125 15.64C20.4031 14.8054 20.5487 13.9322 20.5563 13.0525C20.5775 12.0186 20.3263 10.9973 19.8279 10.0913C19.5862 9.68169 19.2594 9.32875 18.8696 9.05625C18.4359 8.76704 17.9245 8.61663 17.4033 8.625H15.3333C15.2815 8.62673 15.2299 8.61737 15.182 8.59754C15.134 8.5777 15.0909 8.54786 15.0554 8.51C14.985 8.43417 14.9442 8.33552 14.9404 8.23209V8.12667L15.7167 6.37292C15.8748 6.01016 15.9564 5.61866 15.9563 5.22292C15.9556 4.46068 15.6522 3.7299 15.1129 3.19125L14.9021 2.98042C14.7083 2.78836 14.4758 2.63988 14.22 2.54492C13.9642 2.44995 13.6912 2.41068 13.419 2.42973C13.1468 2.44878 12.8819 2.52571 12.6418 2.65539C12.4018 2.78506 12.1922 2.96449 12.0271 3.18167L7.89667 8.625C7.50879 8.18962 6.99769 7.88247 6.4312 7.74431C5.8647 7.60615 5.26958 7.64352 4.72481 7.85144C4.18004 8.05937 3.71137 8.42803 3.38099 8.90851C3.05061 9.38899 2.87415 9.95857 2.875 10.5417V18.2083C2.875 18.9708 3.1779 19.7021 3.71707 20.2413C4.25624 20.7804 4.98751 21.0833 5.75 21.0833C6.42175 21.082 7.0709 20.8407 7.58042 20.4029C8.09501 20.8384 8.74628 21.0793 9.42042 21.0833H15.2567C15.8895 21.0895 16.5122 20.9239 17.0583 20.6042C17.8418 20.1087 18.4722 19.4053 18.8792 18.5725C19.3766 17.632 19.7934 16.651 20.125 15.64ZM5.75 19.1667C5.49584 19.1667 5.25208 19.0657 5.07236 18.886C4.89264 18.7063 4.79167 18.4625 4.79167 18.2083V10.5417C4.79167 10.2875 4.89264 10.0437 5.07236 9.86403C5.25208 9.6843 5.49584 9.58334 5.75 9.58334C6.00417 9.58334 6.24792 9.6843 6.42765 9.86403C6.60737 10.0437 6.70834 10.2875 6.70834 10.5417V18.2083C6.70834 18.4625 6.60737 18.7063 6.42765 18.886C6.24792 19.0657 6.00417 19.1667 5.75 19.1667ZM16.8283 18.2083C16.6307 18.4904 16.3801 18.7312 16.0904 18.9175C15.8369 19.0625 15.5486 19.1354 15.2567 19.1283H9.42042C9.2943 19.1291 9.16927 19.1049 9.05251 19.0572C8.93575 19.0095 8.82955 18.9392 8.74 18.8504L8.625 18.7163C8.63964 18.5473 8.63964 18.3773 8.625 18.2083V10.8579L13.5221 4.33167L13.7329 4.5425C13.8217 4.63205 13.892 4.73825 13.9397 4.85501C13.9874 4.97177 14.0116 5.0968 14.0108 5.22292C14.0089 5.35528 13.9795 5.4858 13.9246 5.60625L13.1292 7.4175V7.50375C13.046 7.73755 13.0039 7.98395 13.0046 8.23209C13.0046 8.537 13.0649 8.83891 13.1822 9.12037C13.2995 9.40184 13.4713 9.6573 13.6878 9.87202C13.9043 10.0867 14.1612 10.2565 14.4436 10.3714C14.726 10.4863 15.0284 10.5442 15.3333 10.5417H17.4513C17.5743 10.5408 17.6947 10.5776 17.7963 10.6471C18.0614 10.8525 18.2584 11.133 18.3617 11.4521C18.5548 11.9631 18.6492 12.5062 18.6396 13.0525C18.635 13.7243 18.5217 14.391 18.3042 15.0267C17.9662 16.1521 17.4692 17.2234 16.8283 18.2083Z" fill="#222221"/>
</svg>
