<svg width="24" height="24" viewBox="0 0 24 24" fill="none" xmlns="http://www.w3.org/2000/svg">
<mask id="path-1-inside-1_12_643" fill="white">
<path d="M24 0H0V18.6158H8.016L4.896 24H19.104L15.696 18.6158H24V0ZM18.144 23.4272H5.808L8.592 18.6158H15.072L18.144 23.4272ZM23.52 18.043H15.36H8.352H0.48V0.572792H23.52V18.043Z"/>
</mask>
<path d="M24 0H0V18.6158H8.016L4.896 24H19.104L15.696 18.6158H24V0ZM18.144 23.4272H5.808L8.592 18.6158H15.072L18.144 23.4272ZM23.52 18.043H15.36H8.352H0.48V0.572792H23.52V18.043Z" fill="#878787"/>
<path d="M24 0H29V-5H24V0ZM0 0V-5H-5V0H0ZM0 18.6158H-5V23.6158H0V18.6158ZM8.016 18.6158L12.3422 21.1226L16.6921 13.6158H8.016V18.6158ZM4.896 24L0.569846 21.4931L-3.78015 29H4.896V24ZM19.104 24V29H28.1862L23.3288 21.3259L19.104 24ZM15.696 18.6158V13.6158H6.61379L11.4712 21.2899L15.696 18.6158ZM24 18.6158V23.6158H29V18.6158H24ZM18.144 23.4272V28.4272H27.2686L22.3583 20.7365L18.144 23.4272ZM5.808 23.4272L1.48025 20.9231L-2.86177 28.4272H5.808V23.4272ZM8.592 18.6158V13.6158H5.70842L4.26425 16.1116L8.592 18.6158ZM15.072 18.6158L19.2863 15.925L17.8118 13.6158H15.072V18.6158ZM23.52 18.043V23.043H28.52V18.043H23.52ZM0.48 18.043H-4.52V23.043H0.48V18.043ZM0.48 0.572792V-4.42721H-4.52V0.572792H0.48ZM23.52 0.572792H28.52V-4.42721H23.52V0.572792ZM24 0V-5H0V0V5H24V0ZM0 0H-5V18.6158H0H5V0H0ZM0 18.6158V23.6158H8.016V18.6158V13.6158H0V18.6158ZM8.016 18.6158L3.68985 16.1089L0.569846 21.4931L4.896 24L9.22215 26.5069L12.3422 21.1226L8.016 18.6158ZM4.896 24V29H19.104V24V19H4.896V24ZM19.104 24L23.3288 21.3259L19.9208 15.9416L15.696 18.6158L11.4712 21.2899L14.8792 26.6741L19.104 24ZM15.696 18.6158V23.6158H24V18.6158V13.6158H15.696V18.6158ZM24 18.6158H29V0H24H19V18.6158H24ZM18.144 23.4272V18.4272H5.808V23.4272V28.4272H18.144V23.4272ZM5.808 23.4272L10.1357 25.9313L12.9197 21.1199L8.592 18.6158L4.26425 16.1116L1.48025 20.9231L5.808 23.4272ZM8.592 18.6158V23.6158H15.072V18.6158V13.6158H8.592V18.6158ZM15.072 18.6158L10.8577 21.3065L13.9297 26.1179L18.144 23.4272L22.3583 20.7365L19.2863 15.925L15.072 18.6158ZM23.52 18.043V13.043H15.36V18.043V23.043H23.52V18.043ZM15.36 18.043V13.043H8.352V18.043V23.043H15.36V18.043ZM8.352 18.043V13.043H0.48V18.043V23.043H8.352V18.043ZM0.48 18.043H5.48V0.572792H0.48H-4.52V18.043H0.48ZM0.48 0.572792V5.57279H23.52V0.572792V-4.42721H0.48V0.572792ZM23.52 0.572792H18.52V18.043H23.52H28.52V0.572792H23.52Z" fill="#878787" mask="url(#path-1-inside-1_12_643)"/>
</svg>
