<svg width="24" height="24" viewBox="0 0 24 24" fill="none" xmlns="http://www.w3.org/2000/svg">
<g opacity="0.8">
<path fill-rule="evenodd" clip-rule="evenodd" d="M3.22131 7.83012C3.22131 7.53955 3.52877 7.07432 4.19672 7.07432H14.2951C14.963 7.07432 15.2705 7.53955 15.2705 7.83012V16.1699C15.2705 16.4604 14.963 16.9257 14.2951 16.9257H4.19672C3.52877 16.9257 3.22131 16.4604 3.22131 16.1699V7.83012ZM16.9918 10.3542V7.83012C16.9918 6.27831 15.6552 5.25 14.2951 5.25H4.19672C2.83661 5.25 1.5 6.27831 1.5 7.83012V16.1699C1.5 17.7217 2.83661 18.75 4.19672 18.75H14.2951C15.6552 18.75 16.9918 17.7217 16.9918 16.1699V13.6458L21.1832 16.4222C21.4485 16.5979 21.7829 16.6072 22.0566 16.4465C22.3302 16.2857 22.5 15.9802 22.5 15.6486V8.35135C22.5 8.01976 22.3302 7.71428 22.0566 7.55354C21.7829 7.39279 21.4485 7.4021 21.1832 7.57784L16.9918 10.3542ZM20.7787 14.0029L17.755 12L20.7787 9.99712V14.0029Z" fill="#878787"/>
</g>
</svg>
