<svg width="24" height="24" viewBox="0 0 24 24" fill="none" xmlns="http://www.w3.org/2000/svg">
<path d="M14.3 3.3125C14.1447 2.925 13.8769 2.59288 13.5311 2.35895C13.1854 2.12502 12.7775 2 12.36 2C11.9425 2 11.5346 2.12502 11.1888 2.35895C10.8431 2.59288 10.5753 2.925 10.42 3.3125L8.65999 7.6125L8.57999 7.6725L3.94998 8.0125C3.67661 8.03083 3.40955 8.10299 3.16415 8.22484C2.91875 8.34668 2.69983 8.51581 2.51998 8.7225C2.18709 9.10545 2.00258 9.5951 1.99998 10.1025C1.99987 10.4079 2.06701 10.7096 2.19663 10.9861C2.32625 11.2626 2.51518 11.5072 2.74998 11.7025L6.29998 14.7025V14.7725L5.21999 19.3225C5.18085 19.4931 5.16072 19.6675 5.15999 19.8425C5.15544 20.121 5.20912 20.3975 5.31761 20.654C5.4261 20.9106 5.587 21.1417 5.78998 21.3325C6.12515 21.6607 6.56143 21.866 7.02797 21.915C7.49451 21.964 7.96393 21.8539 8.35998 21.6025L12.36 19.1525H12.46L16.36 21.6025C16.7571 21.8526 17.2272 21.9611 17.6938 21.9103C18.1604 21.8594 18.596 21.6523 18.93 21.3225C19.133 21.1317 19.2939 20.9006 19.4024 20.644C19.5108 20.3875 19.5645 20.111 19.56 19.8325C19.5598 19.6608 19.5396 19.4896 19.5 19.3225L18.36 14.7825V14.7125L21.91 11.7125C22.1253 11.5328 22.3024 11.3117 22.4308 11.0624C22.5593 10.8131 22.6365 10.5407 22.6579 10.261C22.6794 9.98141 22.6446 9.70032 22.5556 9.43436C22.4667 9.1684 22.3253 8.92296 22.14 8.7125C21.9601 8.50581 21.7412 8.33668 21.4958 8.21484C21.2504 8.09299 20.9834 8.02083 20.71 8.0025L16.08 7.6625L16 7.6025L14.24 3.3025L14.3 3.3125ZM17.07 13.1725C16.8386 13.3701 16.6526 13.6153 16.5249 13.8915C16.3972 14.1677 16.3307 14.4682 16.33 14.7725C16.3296 14.941 16.3497 15.1089 16.39 15.2725L17.49 19.7525V19.8025H17.41H17.36L13.42 17.3525C13.0853 17.1495 12.7014 17.0421 12.31 17.0421C11.9186 17.0421 11.5346 17.1495 11.2 17.3525L7.35998 19.9025H7.27998V19.8525L8.38998 15.3325C8.43026 15.1689 8.45041 15.001 8.44999 14.8325C8.4493 14.5282 8.38281 14.2277 8.25508 13.9515C8.12735 13.6753 7.9414 13.4301 7.70998 13.2325L4.15998 10.2325V10.1625V10.0925H4.21998L8.85998 9.7525C9.24834 9.72318 9.62078 9.58593 9.93529 9.35623C10.2498 9.12653 10.4939 8.81352 10.64 8.4525L12.27 4.1025V4.0525H12.39V4.1025L14.15 8.4025C14.2961 8.76352 14.5402 9.07653 14.8547 9.30623C15.1692 9.53593 15.5416 9.67318 15.93 9.7025L20.57 10.0425H20.63V10.1125V10.1825L17.07 13.1725Z" fill="#878787"/>
</svg>
