<svg width="26" height="27" viewBox="0 0 26 27" fill="none" xmlns="http://www.w3.org/2000/svg">
<path d="M1.28993 16.2751C0.57937 15.5646 0.57937 14.4125 1.28993 13.702C2.00049 12.9914 3.15253 12.9914 3.86309 13.702L13.298 23.1369C14.0086 23.8475 14.0086 24.9995 13.298 25.7101C12.5875 26.4206 11.4354 26.4206 10.7249 25.7101L1.28993 16.2751Z" stroke="#878787" stroke-width="1.5" stroke-linecap="round" stroke-linejoin="round"/>
<path d="M6.86511 16.704L15.4423 8.1268L18.8732 11.5577L10.296 20.1349L6.86511 16.704Z" stroke="#878787" stroke-width="1.5" stroke-linecap="round" stroke-linejoin="round"/>
<path d="M1.71879 21.8503C0.771377 20.9029 0.771377 19.3669 1.71879 18.4194L2.57651 17.5617L9.43828 24.4235L8.58056 25.2812C7.63314 26.2286 6.09708 26.2286 5.14967 25.2812L1.71879 21.8503Z" stroke="#878787" stroke-width="1.5" stroke-linecap="round" stroke-linejoin="round"/>
<path d="M15.0135 2.55161C14.3029 1.84105 13.1509 1.84105 12.4403 2.55161C11.7297 3.26217 11.7297 4.41421 12.4403 5.12477L21.8752 14.5597C22.5858 15.2703 23.7378 15.2703 24.4484 14.5597C25.1589 13.8491 25.1589 12.6971 24.4484 11.9865L15.0135 2.55161Z" stroke="#878787" stroke-width="1.5" stroke-linecap="round" stroke-linejoin="round"/>
<path d="M20.5886 2.98047C19.6412 2.03306 18.1052 2.03306 17.1578 2.98047L16.3 3.83819L23.1618 10.7L24.0195 9.84224C24.9669 8.89482 24.9669 7.35877 24.0195 6.41135L20.5886 2.98047Z" stroke="#878787" stroke-width="1.5" stroke-linecap="round" stroke-linejoin="round"/>
</svg>
