<svg width="24" height="24" viewBox="0 0 24 24" fill="none" xmlns="http://www.w3.org/2000/svg">
<path d="M20.25 22.5H3.75C3.15326 22.5 2.58097 22.2629 2.15901 21.841C1.73705 21.419 1.5 20.8467 1.5 20.25V3.75C1.5 3.15326 1.73705 2.58097 2.15901 2.15901C2.58097 1.73705 3.15326 1.5 3.75 1.5H20.25C20.8467 1.5 21.419 1.73705 21.841 2.15901C22.2629 2.58097 22.5 3.15326 22.5 3.75V20.25C22.5 20.8467 22.2629 21.419 21.841 21.841C21.419 22.2629 20.8467 22.5 20.25 22.5ZM3.75 3C3.55109 3 3.36032 3.07902 3.21967 3.21967C3.07902 3.36032 3 3.55109 3 3.75V20.25C3 20.4489 3.07902 20.6397 3.21967 20.7803C3.36032 20.921 3.55109 21 3.75 21H20.25C20.4489 21 20.6397 20.921 20.7803 20.7803C20.921 20.6397 21 20.4489 21 20.25V3.75C21 3.55109 20.921 3.36032 20.7803 3.21967C20.6397 3.07902 20.4489 3 20.25 3H3.75Z" fill="#878787"/>
<path d="M16.5 11.25H7.5C6.90326 11.25 6.33097 11.0129 5.90901 10.591C5.48705 10.169 5.25 9.59674 5.25 9V7.5C5.25 6.90326 5.48705 6.33097 5.90901 5.90901C6.33097 5.48705 6.90326 5.25 7.5 5.25H16.5C17.0967 5.25 17.669 5.48705 18.091 5.90901C18.5129 6.33097 18.75 6.90326 18.75 7.5V9C18.75 9.59674 18.5129 10.169 18.091 10.591C17.669 11.0129 17.0967 11.25 16.5 11.25ZM7.5 6.75C7.30109 6.75 7.11032 6.82902 6.96967 6.96967C6.82902 7.11032 6.75 7.30109 6.75 7.5V9C6.75 9.19891 6.82902 9.38968 6.96967 9.53033C7.11032 9.67098 7.30109 9.75 7.5 9.75H16.5C16.6989 9.75 16.8897 9.67098 17.0303 9.53033C17.171 9.38968 17.25 9.19891 17.25 9V7.5C17.25 7.30109 17.171 7.11032 17.0303 6.96967C16.8897 6.82902 16.6989 6.75 16.5 6.75H7.5Z" fill="#878787"/>
<path d="M10.5 18.75C10.4013 18.7506 10.3035 18.7317 10.2121 18.6943C10.1207 18.657 10.0376 18.602 9.9675 18.5325L5.4675 14.0325C5.32627 13.8913 5.24693 13.6997 5.24693 13.5C5.24693 13.3003 5.32627 13.1087 5.4675 12.9675C5.60873 12.8263 5.80028 12.7469 6 12.7469C6.19973 12.7469 6.39127 12.8263 6.5325 12.9675L11.0325 17.4675C11.1028 17.5372 11.1586 17.6202 11.1967 17.7116C11.2347 17.803 11.2544 17.901 11.2544 18C11.2544 18.099 11.2347 18.1971 11.1967 18.2884C11.1586 18.3798 11.1028 18.4628 11.0325 18.5325C10.9624 18.602 10.8793 18.657 10.7879 18.6943C10.6966 18.7317 10.5987 18.7506 10.5 18.75Z" fill="#878787"/>
<path d="M6 18.75C5.9013 18.7506 5.80345 18.7317 5.71207 18.6943C5.62069 18.657 5.53758 18.602 5.4675 18.5325C5.3972 18.4628 5.34141 18.3798 5.30333 18.2884C5.26526 18.1971 5.24565 18.099 5.24565 18C5.24565 17.901 5.26526 17.803 5.30333 17.7116C5.34141 17.6202 5.3972 17.5372 5.4675 17.4675L9.9675 12.9675C10.0374 12.8976 10.1204 12.8421 10.2118 12.8043C10.3032 12.7664 10.4011 12.7469 10.5 12.7469C10.5989 12.7469 10.6968 12.7664 10.7882 12.8043C10.8796 12.8421 10.9626 12.8976 11.0325 12.9675C11.1024 13.0374 11.1579 13.1205 11.1957 13.2118C11.2336 13.3032 11.2531 13.4011 11.2531 13.5C11.2531 13.5989 11.2336 13.6968 11.1957 13.7882C11.1579 13.8796 11.1024 13.9626 11.0325 14.0325L6.5325 18.5325C6.46242 18.602 6.37931 18.657 6.28793 18.6943C6.19655 18.7317 6.0987 18.7506 6 18.75Z" fill="#878787"/>
<path d="M18 16.5H13.5C13.3011 16.5 13.1103 16.421 12.9697 16.2803C12.829 16.1397 12.75 15.9489 12.75 15.75C12.75 15.5511 12.829 15.3603 12.9697 15.2197C13.1103 15.079 13.3011 15 13.5 15H18C18.1989 15 18.3897 15.079 18.5303 15.2197C18.671 15.3603 18.75 15.5511 18.75 15.75C18.75 15.9489 18.671 16.1397 18.5303 16.2803C18.3897 16.421 18.1989 16.5 18 16.5Z" fill="#878787"/>
<path d="M15.75 18.75C15.5514 18.7472 15.3612 18.6695 15.2175 18.5325L15.1275 18.42C15.0991 18.3782 15.0764 18.3328 15.06 18.285C15.0332 18.2433 15.0129 18.1978 15 18.15C14.9967 18.1 14.9967 18.0499 15 18C15.0028 17.8014 15.0805 17.6112 15.2175 17.4675C15.323 17.3634 15.4569 17.2929 15.6024 17.2649C15.7479 17.2369 15.8984 17.2525 16.035 17.31C16.1271 17.3457 16.2112 17.3992 16.2825 17.4675C16.4195 17.6112 16.4972 17.8014 16.5 18C16.5033 18.0499 16.5033 18.1 16.5 18.15C16.4918 18.197 16.4766 18.2425 16.455 18.285C16.4386 18.3328 16.4159 18.3782 16.3875 18.42C16.3598 18.4593 16.3298 18.4968 16.2975 18.5325C16.2262 18.6008 16.1421 18.6543 16.05 18.69C15.9564 18.7343 15.8534 18.7549 15.75 18.75Z" fill="#878787"/>
<path d="M15.75 14.25C15.5511 14.25 15.3603 14.171 15.2197 14.0303C15.079 13.8897 15 13.6989 15 13.5C14.9963 13.4526 14.9963 13.4049 15 13.3575C15.007 13.3078 15.0222 13.2596 15.045 13.215C15.0614 13.1672 15.0841 13.1218 15.1125 13.08L15.2025 12.9675C15.308 12.8634 15.4419 12.7929 15.5874 12.7649C15.7329 12.7369 15.8834 12.7525 16.02 12.81C16.1121 12.8457 16.1962 12.8992 16.2675 12.9675C16.2998 13.0031 16.3298 13.0407 16.3575 13.08C16.3859 13.1218 16.4086 13.1672 16.425 13.215C16.4478 13.2596 16.463 13.3078 16.47 13.3575C16.4837 13.4041 16.4938 13.4518 16.5 13.5C16.4972 13.6986 16.4196 13.8888 16.2825 14.0325C16.2112 14.1008 16.1271 14.1543 16.035 14.19C15.9448 14.2284 15.848 14.2488 15.75 14.25Z" fill="#878787"/>
</svg>
