<svg width="24" height="24" viewBox="0 0 24 24" fill="none" xmlns="http://www.w3.org/2000/svg">
<path d="M19 2H12.83C12.0346 2.0007 11.2721 2.31723 10.71 2.88L2.71 10.88C2.1482 11.4425 1.83264 12.205 1.83264 13C1.83264 13.795 2.1482 14.5575 2.71 15.12L8.88 21.29C9.4425 21.8518 10.205 22.1674 11 22.1674C11.795 22.1674 12.5575 21.8518 13.12 21.29L21.12 13.29C21.6828 12.7279 21.9993 11.9654 22 11.17V5C22 4.20435 21.6839 3.44129 21.1213 2.87868C20.5587 2.31607 19.7956 2 19 2ZM20 11.17C20.0008 11.3016 19.9755 11.4321 19.9258 11.5539C19.876 11.6757 19.8027 11.7866 19.71 11.88L11.71 19.88C11.617 19.9737 11.5064 20.0481 11.3846 20.0989C11.2627 20.1497 11.132 20.1758 11 20.1758C10.868 20.1758 10.7373 20.1497 10.6154 20.0989C10.4936 20.0481 10.383 19.9737 10.29 19.88L4.12 13.71C4.02627 13.617 3.95188 13.5064 3.90111 13.3846C3.85034 13.2627 3.8242 13.132 3.8242 13C3.8242 12.868 3.85034 12.7373 3.90111 12.6154C3.95188 12.4936 4.02627 12.383 4.12 12.29L12.12 4.29C12.2134 4.19732 12.3243 4.12399 12.4461 4.07423C12.5679 4.02446 12.6984 3.99924 12.83 4H19C19.2652 4 19.5196 4.10536 19.7071 4.29289C19.8946 4.48043 20 4.73478 20 5V11.17ZM15 6C14.4067 6 13.8266 6.17595 13.3333 6.50559C12.8399 6.83524 12.4554 7.30377 12.2284 7.85195C12.0013 8.40013 11.9419 9.00333 12.0576 9.58527C12.1734 10.1672 12.4591 10.7018 12.8787 11.1213C13.2982 11.5409 13.8328 11.8266 14.4147 11.9424C14.9967 12.0581 15.5999 11.9987 16.1481 11.7716C16.6962 11.5446 17.1648 11.1601 17.4944 10.6667C17.8241 10.1734 18 9.59334 18 9C18 8.20435 17.6839 7.44129 17.1213 6.87868C16.5587 6.31607 15.7956 6 15 6ZM15 10C14.8022 10 14.6089 9.94135 14.4444 9.83147C14.28 9.72159 14.1518 9.56541 14.0761 9.38268C14.0004 9.19996 13.9806 8.99889 14.0192 8.80491C14.0578 8.61093 14.153 8.43275 14.2929 8.29289C14.4327 8.15304 14.6109 8.0578 14.8049 8.01921C14.9989 7.98063 15.2 8.00043 15.3827 8.07612C15.5654 8.15181 15.7216 8.27998 15.8315 8.44443C15.9414 8.60888 16 8.80222 16 9C16 9.26522 15.8946 9.51957 15.7071 9.70711C15.5196 9.89464 15.2652 10 15 10Z" fill="#878787"/>
</svg>
